<svg width="200" height="28" fill="none" xmlns="http://www.w3.org/2000/svg"><g filter="url(#filter0_i)"><path d="M160.557.842c-4.885-.165-10.167 2.693-12.672 8.07-1.554 3.035-2.739 6.414-3.528 9.73-.071.294-.136.587-.198.879-.079.471-.085 1.076-.043 1.695.193 2.61 2.475 5.767 6.236 5.947h4.461c4.883.165 10.162-2.692 12.669-8.07 1.554-3.036 2.739-6.418 3.528-9.733a31.2 31.2 0 00.198-.878c.081-.473.086-1.077.043-1.695-.193-2.613-2.475-5.767-6.236-5.945h-4.458zm-83.75.242l1.997 25.824h4.005-.023.236a2.406 2.406 0 001.931-1.092h.003l16.329-24.732h-4.223L85.364 18.836 83.993 1.084h-7.186zm27.395 0l-9.37 25.824h7.193l9.368-25.824h-7.191zm16.879 0c-6.462.08-9.317 7.385-5.787 12.065 1.791 2.222 4.348 4.526 5.792 6.96.915 1.315-.064 3.509-1.812 3.53h-11.409l-1.181 3.269h14.445c5.661-.017 9.492-6.791 5.693-11.987-1.754-2.633-4.535-4.43-6.18-7-.978-1.343.005-3.545 1.772-3.568h10.618l1.184-3.269h-13.135zm18.113 0l-9.366 25.824h7.191l9.368-25.824h-7.193zm38.827 0l-9.409 25.824h3.706l6.484-17.798.033.32 5.824 15.984a2.417 2.417 0 002.091 1.494h3.389l9.412-25.824h-3.706l-6.36 17.453-6.77-17.453h-4.694zm-15.822 2.43c1.356.105 2.433 1.264 2.433 2.67a2.46 2.46 0 01-.174 1l-4.753 13.15c-.959 2.525-3.188 4.071-5.835 4.15h-.702c-1.356-.105-2.433-1.265-2.433-2.67a2.436 2.436 0 01.177-1.003l4.75-13.151c.96-2.524 3.189-4.067 5.84-4.144h.697v-.003z" fill="#fff"/></g><g filter="url(#filter1_i)"><path d="M10.149 1.084L.777 26.908h7.637l4.481-12.35h9.092l-4.481 12.35h5.967c1.009 0 1.876-.647 2.228-1.55.003-.014.007-.018.013-.024l8.798-24.25h-7.637l-3.607 9.942h-9.092l3.606-9.943H10.15v.001zm29.217 0l-9.368 25.824h7.634l9.369-25.824h-7.635zm12.831 0L42.83 26.908h7.634l3.592-9.904 1.909-1.488 5.064 9.978.003-.014c.006.014.009.018.013.024a2.41 2.41 0 002.334 1.383c-.018 0-.037.014-.058.014h6.484l-8.066-15.892L74.46 1.082h-5.706l-12.445 9.71 3.523-9.71h-7.635v.002z" fill="#FF182D"/></g><defs><filter id="filter0_i" x="76.807" y=".835" width="122.744" height="30.334" filterUnits="userSpaceOnUse" color-interpolation-filters="sRGB"><feFlood flood-opacity="0" result="BackgroundImageFix"/><feBlend in="SourceGraphic" in2="BackgroundImageFix" result="shape"/><feColorMatrix in="SourceAlpha" values="0 0 0 0 0 0 0 0 0 0 0 0 0 0 0 0 0 0 127 0" result="hardAlpha"/><feOffset dy="4"/><feGaussianBlur stdDeviation="4"/><feComposite in2="hardAlpha" operator="arithmetic" k2="-1" k3="1"/><feColorMatrix values="0 0 0 0 0 0 0 0 0 0 0 0 0 0 0 0 0 0 0.1 0"/><feBlend in2="shape" result="effect1_innerShadow"/></filter><filter id="filter1_i" x=".778" y="1.082" width="73.682" height="29.826" filterUnits="userSpaceOnUse" color-interpolation-filters="sRGB"><feFlood flood-opacity="0" result="BackgroundImageFix"/><feBlend in="SourceGraphic" in2="BackgroundImageFix" result="shape"/><feColorMatrix in="SourceAlpha" values="0 0 0 0 0 0 0 0 0 0 0 0 0 0 0 0 0 0 127 0" result="hardAlpha"/><feOffset dy="4"/><feGaussianBlur stdDeviation="4"/><feComposite in2="hardAlpha" operator="arithmetic" k2="-1" k3="1"/><feColorMatrix values="0 0 0 0 0 0 0 0 0 0 0 0 0 0 0 0 0 0 0.1 0"/><feBlend in2="shape" result="effect1_innerShadow"/></filter></defs></svg>