<svg width="255" height="34" fill="none" xmlns="http://www.w3.org/2000/svg"><path fill-rule="evenodd" clip-rule="evenodd" d="M146.717 15.899c-4.543-6.05-.871-15.473 7.425-15.585h16.864l-1.523 4.21h-13.627c-2.258.028-3.536 2.871-2.258 4.6 2.095 3.318 5.685 5.632 7.916 9.033 4.868 6.719-.055 15.473-7.317 15.473h-18.523l1.523-4.21h14.606c2.258-.028 3.509-2.871 2.339-4.572-1.849-3.095-5.14-6.078-7.425-8.95zm-17.109 17.787h-9.194L132.41.342h9.193l-11.995 33.344zm45.288 0h-9.221L177.67.342h9.194l-11.968 33.344zm13.926-23.252c3.21-6.942 9.956-10.622 16.212-10.427h5.712c4.814.223 7.724 4.294 7.996 7.667.055.809.028 1.59-.054 2.175-.082.39-.163.753-.245 1.143-1.006 4.293-2.529 8.643-4.515 12.574-3.21 6.942-9.955 10.622-16.211 10.427h-5.712c-4.815-.223-7.725-4.294-7.97-7.667-.054-.809-.054-1.561.055-2.175.081-.362.163-.753.244-1.143.952-4.293 2.476-8.643 4.488-12.574zm17.408-6.97c-3.4.112-6.256 2.091-7.48 5.353l-6.092 16.979a2.89 2.89 0 00-.218 1.282c0 1.813 1.387 3.318 3.101 3.457h.897c3.4-.111 6.256-2.09 7.48-5.352l6.066-16.979c.163-.39.245-.836.218-1.282 0-1.813-1.388-3.318-3.128-3.458h-.844zM108.283 23.26L123.243.342h5.413l-20.917 31.95a3.121 3.121 0 01-2.475 1.422h-.299.027-5.114L97.322.37h9.193l1.768 22.889zm120.143-12.155l-.028-.419-8.296 22.973h-4.732L227.419.314h6.011l8.677 22.527L250.24.314H255l-12.05 33.344h-4.352c-1.196-.056-2.23-.836-2.692-1.924l-7.48-20.63z" fill="#6D6E71"/><path fill-rule="evenodd" clip-rule="evenodd" d="M47.274 33.685h-9.792L49.504.34h9.765L47.274 33.685zm-30.138-20.52h11.642L33.402.313h9.764l-11.26 31.309s0 .027-.028.027c-.462 1.171-1.55 1.98-2.856 2.008H21.38l5.74-15.947H15.503l-5.74 15.947H0L11.995.313h9.765l-4.624 12.852zm53.938-.306L87.013.313h7.29L78.01 13.137l10.336 20.52H80.05c.027 0 .054 0 .081-.028-1.278.084-2.448-.67-2.992-1.784 0 0 0-.028-.027-.028v.028l-6.474-12.88-2.448 1.923-4.596 12.797h-9.765L65.824.34h9.765l-4.515 12.518z" fill="#E91629"/></svg>